<svg xmlns="http://www.w3.org/2000/svg" viewBox="0 0 64 64" fill="none">
  <defs>
    <linearGradient id="dsart-red" x1="10" y1="10" x2="54" y2="54" gradientUnits="userSpaceOnUse">
      <stop stop-color="#FF3B52"/>
      <stop offset="1" stop-color="#A80016"/>
    </linearGradient>
  </defs>
  <rect x="4" y="4" width="56" height="56" rx="16" fill="#161616"/>
  <rect x="5" y="5" width="54" height="54" rx="15" stroke="rgba(255,255,255,0.08)"/>
  <path d="M18 18H30.5C39.06 18 44 22.8 44 32C44 41.2 39.06 46 30.5 46H18V18ZM25 24V40H30.08C34.77 40 37 37.27 37 32C37 26.73 34.77 24 30.08 24H25Z" fill="url(#dsart-red)"/>
  <path d="M45.56 19.98C43.58 18.66 41 18 38.06 18C31.97 18 28 21.02 28 25.76C28 29.75 30.67 31.98 36.2 33.11L39.03 33.69C42.35 34.35 43.22 34.94 43.22 36.27C43.22 38 41.58 39.11 38.72 39.11C36.23 39.11 33.77 38.21 31.81 36.63L28.45 40.98C31.08 43.01 34.74 44 38.58 44C45.11 44 49.01 40.87 49.01 35.85C49.01 31.86 46.54 29.78 41.15 28.64L38.08 28C35.09 27.38 33.86 26.75 33.86 25.45C33.86 23.88 35.42 22.89 37.97 22.89C40.18 22.89 42.18 23.48 43.96 24.7L45.56 19.98Z" fill="#F4F1ED"/>
</svg>
